<svg width="21" height="20" viewBox="0 0 21 20" fill="none" xmlns="http://www.w3.org/2000/svg">
<path d="M10.5 0C11.8132 0 13.1136 0.258658 14.3268 0.761205C15.5401 1.26375 16.6425 2.00035 17.5711 2.92893C19.4464 4.8043 20.5 7.34784 20.5 10C20.5088 12.3091 19.7092 14.5485 18.24 16.33L20.24 18.33C20.3788 18.4706 20.4728 18.6492 20.5101 18.8432C20.5475 19.0372 20.5266 19.2379 20.45 19.42C20.367 19.5999 20.2323 19.7511 20.0632 19.8544C19.894 19.9577 19.698 20.0083 19.5 20H10.5C7.84785 20 5.30431 18.9464 3.42894 17.0711C1.55358 15.1957 0.500011 12.6522 0.500011 10C0.500011 7.34784 1.55358 4.8043 3.42894 2.92893C5.30431 1.05357 7.84785 0 10.5 0ZM10.5 18H17.09L16.16 17.07C15.9738 16.8826 15.8692 16.6292 15.8692 16.365C15.8692 16.1008 15.9738 15.8474 16.16 15.66C17.4694 14.352 18.2848 12.6305 18.4673 10.7888C18.6498 8.94705 18.1881 7.09901 17.1608 5.55952C16.1335 4.02004 14.6042 2.88436 12.8335 2.34597C11.0628 1.80759 9.16015 1.8998 7.4498 2.60691C5.73944 3.31402 4.32716 4.59227 3.45357 6.22389C2.57999 7.85551 2.29914 9.73954 2.65888 11.555C3.01863 13.3705 3.9967 15.005 5.42647 16.1802C6.85624 17.3554 8.64925 17.9985 10.5 18Z" fill="#949494"/>
</svg>
