<svg width="9" height="12" viewBox="0 0 9 12" fill="none" xmlns="http://www.w3.org/2000/svg">
<path d="M8.03747 5.5C7.89372 5.3125 7.71872 5.15 7.55622 4.9875C7.13747 4.6125 6.66247 4.34375 6.26247 3.95C5.33122 3.0375 5.12497 1.53125 5.71872 0.375C5.12497 0.51875 4.60622 0.84375 4.16247 1.2C2.54372 2.5 1.90622 4.79375 2.66872 6.7625C2.69372 6.825 2.71872 6.8875 2.71872 6.96875C2.71872 7.10625 2.62497 7.23125 2.49997 7.28125C2.35622 7.34375 2.20622 7.30625 2.08747 7.20625C2.05179 7.17675 2.02208 7.14068 1.99997 7.1C1.29372 6.20625 1.18122 4.925 1.65622 3.9C0.61247 4.75 0.04372 6.1875 0.12497 7.54375C0.16247 7.85625 0.19997 8.16875 0.30622 8.48125C0.39372 8.85625 0.56247 9.23125 0.74997 9.5625C1.42497 10.6438 2.59372 11.4188 3.84997 11.575C5.18747 11.7438 6.61872 11.5 7.64372 10.575C8.78747 9.5375 9.18747 7.875 8.59997 6.45L8.51872 6.2875C8.38747 6 8.03747 5.5 8.03747 5.5ZM6.06247 9.4375C5.88747 9.5875 5.59997 9.75 5.37497 9.8125C4.67497 10.0625 3.97497 9.7125 3.56247 9.3C4.30622 9.125 4.74997 8.575 4.88122 8.01875C4.98747 7.51875 4.78747 7.10625 4.70622 6.625C4.63122 6.1625 4.64372 5.76875 4.81247 5.3375C4.93122 5.575 5.05622 5.8125 5.20622 6C5.68747 6.625 6.44372 6.9 6.60622 7.75C6.63122 7.8375 6.64372 7.925 6.64372 8.01875C6.66247 8.53125 6.43747 9.09375 6.06247 9.4375Z" fill="#F86366"/>
</svg>
