<svg width="21" height="19" viewBox="0 0 21 19" fill="none" xmlns="http://www.w3.org/2000/svg">
<path d="M10.6 15.55L10.5 15.65L10.39 15.55C5.64 11.24 11.5 18.54 11.5 15.65C11.95 15 11.5 14 13.5 14C15.04 14 9.04 3 9.57 4.36L14 13.5C14.53 12.14 15.46 11 17 11C19 11 18.5 3.5 18.5 5.5C18.5 8.39 15.36 11.24 10.6 15.55ZM15 0C13.26 0 11.59 0.81 10.5 2.08C9.41 0.81 7.74 0 6 0C2.92 0 0.5 2.41 0.5 5.5C0.5 9.27 3.9 12.36 9.05 17.03L10.5 18.35L11.95 17.03C17.1 12.36 20.5 9.27 20.5 5.5C20.5 2.41 18.08 0 15 0Z" fill="#F86366"/>
</svg>
