<svg width="28" height="27" viewBox="0 0 28 27" fill="none" xmlns="http://www.w3.org/2000/svg">
<g style="mix-blend-mode:screen" opacity="0.8" filter="url(#filter0_b_661_1194)">
<path d="M7.25 24.75C6.63125 24.75 6.10138 24.5295 5.66038 24.0885C5.21938 23.6475 4.99925 23.118 5 22.5V11.25C5 10.6313 5.2205 10.1014 5.6615 9.66038C6.1025 9.21938 6.632 8.99925 7.25 9H8.375V6.75C8.375 5.19375 8.92363 3.867 10.0209 2.76975C11.1181 1.6725 12.4445 1.12425 14 1.125C15.5563 1.125 16.883 1.67363 17.9803 2.77088C19.0775 3.86813 19.6258 5.1945 19.625 6.75V9H20.75C21.3687 9 21.8986 9.2205 22.3396 9.6615C22.7806 10.1025 23.0007 10.632 23 11.25V22.5C23 23.1187 22.7795 23.6486 22.3385 24.0896C21.8975 24.5306 21.368 24.7507 20.75 24.75H7.25ZM14 19.125C14.6188 19.125 15.1486 18.9045 15.5896 18.4635C16.0306 18.0225 16.2508 17.493 16.25 16.875C16.25 16.2563 16.0295 15.7264 15.5885 15.2854C15.1475 14.8444 14.618 14.6243 14 14.625C13.3813 14.625 12.8514 14.8455 12.4104 15.2865C11.9694 15.7275 11.7493 16.257 11.75 16.875C11.75 17.4938 11.9705 18.0236 12.4115 18.4646C12.8525 18.9056 13.382 19.1257 14 19.125ZM10.625 9H17.375V6.75C17.375 5.8125 17.0469 5.01563 16.3906 4.35938C15.7344 3.70313 14.9375 3.375 14 3.375C13.0625 3.375 12.2656 3.70313 11.6094 4.35938C10.9531 5.01563 10.625 5.8125 10.625 6.75V9Z" fill="#F4F4F4"/>
</g>
<defs>
<filter id="filter0_b_661_1194" x="-99.5" y="-100" width="227" height="227" filterUnits="userSpaceOnUse" color-interpolation-filters="sRGB">
<feFlood flood-opacity="0" result="BackgroundImageFix"/>
<feGaussianBlur in="BackgroundImageFix" stdDeviation="50"/>
<feComposite in2="SourceAlpha" operator="in" result="effect1_backgroundBlur_661_1194"/>
<feBlend mode="normal" in="SourceGraphic" in2="effect1_backgroundBlur_661_1194" result="shape"/>
</filter>
</defs>
</svg>
<svg width="28" height="27" viewBox="0 0 28 27" fill="none" xmlns="http://www.w3.org/2000/svg">
<g style="mix-blend-mode:screen" opacity="0.8" filter="url(#filter0_b_661_1194)">
<path d="M7.25 24.75C6.63125 24.75 6.10138 24.5295 5.66038 24.0885C5.21938 23.6475 4.99925 23.118 5 22.5V11.25C5 10.6313 5.2205 10.1014 5.6615 9.66038C6.1025 9.21938 6.632 8.99925 7.25 9H8.375V6.75C8.375 5.19375 8.92363 3.867 10.0209 2.76975C11.1181 1.6725 12.4445 1.12425 14 1.125C15.5563 1.125 16.883 1.67363 17.9803 2.77088C19.0775 3.86813 19.6258 5.1945 19.625 6.75V9H20.75C21.3687 9 21.8986 9.2205 22.3396 9.6615C22.7806 10.1025 23.0007 10.632 23 11.25V22.5C23 23.1187 22.7795 23.6486 22.3385 24.0896C21.8975 24.5306 21.368 24.7507 20.75 24.75H7.25ZM14 19.125C14.6188 19.125 15.1486 18.9045 15.5896 18.4635C16.0306 18.0225 16.2508 17.493 16.25 16.875C16.25 16.2563 16.0295 15.7264 15.5885 15.2854C15.1475 14.8444 14.618 14.6243 14 14.625C13.3813 14.625 12.8514 14.8455 12.4104 15.2865C11.9694 15.7275 11.7493 16.257 11.75 16.875C11.75 17.4938 11.9705 18.0236 12.4115 18.4646C12.8525 18.9056 13.382 19.1257 14 19.125ZM10.625 9H17.375V6.75C17.375 5.8125 17.0469 5.01563 16.3906 4.35938C15.7344 3.70313 14.9375 3.375 14 3.375C13.0625 3.375 12.2656 3.70313 11.6094 4.35938C10.9531 5.01563 10.625 5.8125 10.625 6.75V9Z" fill="#F4F4F4"/>
</g>
<defs>
<filter id="filter0_b_661_1194" x="-99.5" y="-100" width="227" height="227" filterUnits="userSpaceOnUse" color-interpolation-filters="sRGB">
<feFlood flood-opacity="0" result="BackgroundImageFix"/>
<feGaussianBlur in="BackgroundImageFix" stdDeviation="50"/>
<feComposite in2="SourceAlpha" operator="in" result="effect1_backgroundBlur_661_1194"/>
<feBlend mode="normal" in="SourceGraphic" in2="effect1_backgroundBlur_661_1194" result="shape"/>
</filter>
</defs>
</svg>
