<svg width="24" height="26" viewBox="0 0 24 26" fill="none" xmlns="http://www.w3.org/2000/svg">
<circle cx="11.5" cy="12.4346" r="11.5" fill="#EFA35D"/>
<g clip-path="url(#clip0_119_324)">
<path d="M8.88564 5.64869C8.06307 6.12777 7.33946 6.77614 6.79896 7.55418C6.24893 8.34608 6.01309 9.54172 6.05046 10.792C6.08778 12.0423 6.39311 13.3415 6.84254 14.3147C8.18523 17.2219 8.11278 20.5482 6.37286 25.9121L6.78287 26.6369C8.05192 23.3468 8.65395 20.4515 8.77844 17.8399L8.78114 17.8397C9.09916 19.1124 9.24711 20.404 9.02316 21.6451C8.65569 23.453 8.0756 25.3807 7.2418 27.4509L7.39992 27.7296L8.24201 27.2463L8.25782 27.2372L8.27842 27.1734C8.7789 26.1446 9.30182 25.1705 9.91419 24.3679L9.92411 24.3706L9.18757 26.7018L10.1621 26.142C10.9795 23.8006 11.5887 21.2562 11.8616 19.0169C12.124 16.8627 12.0503 14.9924 11.6338 13.9085C11.5461 13.8551 11.4581 13.8024 11.3731 13.7409C9.92289 12.692 9.35692 10.5807 10.472 9.05624C11.2922 7.93465 12.9282 7.49622 14.1224 8.35428C14.134 8.36256 14.1457 8.36931 14.1571 8.37778C15.0717 8.92877 15.3256 9.92208 15.0462 10.6436C14.9045 11.0091 14.6109 11.3221 14.2066 11.4225C13.8022 11.5229 13.3375 11.3963 12.8946 11.0532L13.3387 10.4801C13.6626 10.731 13.8856 10.7541 14.0311 10.7181C14.1765 10.682 14.2952 10.5723 14.3691 10.3813C14.5171 9.99943 14.424 9.36703 13.7594 8.98299L13.7409 8.97262L13.7238 8.96008C12.8819 8.33306 11.6652 8.65376 11.0572 9.48501C10.2035 10.6522 10.6509 12.3229 11.7989 13.1532C13.3796 14.2966 15.6093 13.6968 16.7086 12.1516C18.1979 10.0585 17.3972 7.12027 15.3522 5.67818C13.4812 4.35901 11.0123 4.48477 9.05199 5.5556C8.99629 5.58597 8.94058 5.61678 8.88576 5.64875L8.88564 5.64869ZM8.53842 7.04742C8.64801 6.98572 8.7592 6.93557 8.87238 6.89524C9.25712 6.75823 9.67438 6.73505 10.1061 6.77713C8.97059 7.18892 8.23403 8.06483 7.87041 9.1793C7.50699 10.2928 7.53569 11.6413 7.97565 12.9178C7.59853 12.6261 7.31787 12.3351 7.13481 11.9807C7.0216 11.7616 6.94091 11.5116 6.903 11.2079C6.85902 10.4254 6.9512 9.65776 7.18093 8.95361C7.30765 8.56536 7.47839 8.19574 7.69192 7.85563C7.9584 7.46804 8.24196 7.21428 8.53844 7.04737L8.53842 7.04742ZM13.8834 6.75597C14.8986 6.7603 15.8521 7.49657 16.3632 8.49283C16.5655 8.88705 16.6928 9.33288 16.7167 9.79667C16.6646 10.6759 16.017 11.3446 15.4413 11.4691L15.4334 11.4625C16.1719 10.5713 16.1224 9.61272 15.7175 8.82344C15.6731 8.73695 15.6244 8.65324 15.5715 8.57284C15.3617 8.09707 14.9985 7.61241 14.544 7.2181C14.3424 7.04318 14.1205 6.88456 13.883 6.7602L13.8834 6.75583L13.8834 6.75597ZM9.34931 9.43256C9.0196 10.4903 9.04481 11.1893 9.22618 11.802C9.4079 12.4156 9.77012 12.9607 10.1552 13.6368C10.6125 14.4397 11.07 15.4201 11.199 16.8769C11.1991 16.8774 11.1985 16.878 11.1986 16.8785C11.0086 18.1879 10.6904 19.5151 10.1893 20.4827L10.1866 20.4829C10.9565 16.83 10.2624 15.2913 9.52423 13.9955C9.15522 13.3476 8.75206 12.7553 8.5306 12.0074C8.5034 11.9155 8.47969 11.8226 8.45951 11.7289L8.46051 11.7283C8.40207 10.9981 8.51189 10.5301 8.70426 10.1721C8.85954 9.88336 9.07991 9.65491 9.34934 9.43254L9.34931 9.43256Z" fill="#354665"/>
</g>
<defs>
<clipPath id="clip0_119_324">
<rect width="16.9371" height="17.508" fill="white" transform="translate(0 9.90308) rotate(-30)"/>
</clipPath>
</defs>
</svg>
