<svg width="24" height="22" viewBox="0 0 24 22" fill="none" xmlns="http://www.w3.org/2000/svg">
<path d="M6.00029 8.87443C3.56603 9.63899 1.80029 11.9132 1.80029 14.5997C1.80029 17.9135 4.48658 20.5997 7.80029 20.5997C9.47873 20.5997 10.9962 19.9106 12.0852 18.7997C13.1461 17.7175 13.8003 16.235 13.8003 14.5997M18.0003 8.87443C20.4348 9.63884 22.2008 11.9131 22.2008 14.5999C22.2008 17.9136 19.5145 20.5999 16.2008 20.5999C14.8498 20.5999 13.6032 20.1534 12.6003 19.4M18.0003 7.39963C18.0003 10.7133 15.314 13.3996 12.0003 13.3996C8.68658 13.3996 6.00029 10.7133 6.00029 7.39963C6.00029 4.08592 8.68658 1.39963 12.0003 1.39963C15.314 1.39963 18.0003 4.08592 18.0003 7.39963Z" stroke="white" stroke-width="2" stroke-linecap="round" stroke-linejoin="round"/>
</svg>
